<svg width="176" height="56" viewBox="0 0 176 56" fill="none" xmlns="http://www.w3.org/2000/svg">
<path d="M89.273 1.76V19.04H90.953V20H81.353V19.04H83.753V1.904L79.025 20H73.385L68.177 1.808V19.04H70.577V20H65.177V19.04H67.097V1.76H65.177V0.8H73.529L78.449 17.984L82.937 0.8H90.953V1.76H89.273ZM110.82 1.76H108.9V17.528L106.428 20H96.78L94.308 17.528V1.76H92.388V0.8H101.748V1.76H99.828V19.04H105.9L107.82 17.12V1.76H105.9V0.8H110.82V1.76Z" fill="#17194A"/>
<path d="M0.484375 47.1289C0.484375 46.4336 0.628906 45.7578 0.917969 45.1016C1.05078 45.1016 1.25781 45.1289 1.53906 45.1836C1.82812 45.2305 2.12891 45.293 2.44141 45.3711C2.39453 43.2617 2.37109 41.5312 2.37109 40.1797C2.37109 38.5 2.40234 37.0664 2.46484 35.8789L0.660156 35.6328C0.558594 35.3438 0.480469 35.0273 0.425781 34.6836C0.371094 34.332 0.34375 33.9922 0.34375 33.6641C0.34375 33.4141 0.363281 33.1406 0.402344 32.8438C1.33203 32.4922 2.55469 32.2383 4.07031 32.082C5.59375 31.918 7.12891 31.8359 8.67578 31.8359C10.1367 31.8359 11.1953 31.9023 11.8516 32.0352C12.2734 32.293 12.6406 32.5547 12.9531 32.8203C13.2734 33.0781 13.5781 33.3984 13.8672 33.7812C13.8672 34.3281 13.8125 34.9219 13.7031 35.5625C13.6016 36.1953 13.457 36.7773 13.2695 37.3086C13.0898 37.8398 12.8945 38.2227 12.6836 38.457C12.5039 38.543 12.3047 38.6094 12.0859 38.6562C11.8672 38.6953 11.5977 38.7148 11.2773 38.7148C10.9961 38.7148 10.7539 38.6914 10.5508 38.6445C10.3555 38.5898 10.168 38.5117 9.98828 38.4102L9.58984 35.8555C9.09766 35.7773 8.51172 35.7383 7.83203 35.7383C7.64453 35.7383 7.45703 35.75 7.26953 35.7734C7.23828 36.9062 7.07812 38.4492 6.78906 40.4023C8.52344 40.1133 10.0039 39.9023 11.2305 39.7695C11.543 40.2461 11.6992 40.8281 11.6992 41.5156C11.6992 41.9688 11.6367 42.4062 11.5117 42.8281C11.3867 43.25 11.25 43.543 11.1016 43.707C10.7734 43.7617 10.3828 43.7891 9.92969 43.7891C9.34375 43.7891 8.73438 43.7383 8.10156 43.6367C7.47656 43.5352 6.89062 43.3867 6.34375 43.1914L6.19141 44.1875C6.09766 44.7422 6.01562 45.2891 5.94531 45.8281L13.3633 45.3945C13.4805 45.5039 13.5781 45.7227 13.6562 46.0508C13.7422 46.3789 13.7852 46.7383 13.7852 47.1289C13.7852 47.7539 13.6602 48.3008 13.4102 48.7695C13.1602 49.2383 12.8281 49.6016 12.4141 49.8594C12.0078 50.1094 11.5703 50.2344 11.1016 50.2344C10.6328 50.2344 9.99219 50.1328 9.17969 49.9297C8.375 49.7188 7.58984 49.457 6.82422 49.1445C6.06641 48.832 5.50781 48.5312 5.14844 48.2422C4.78906 48.8672 4.39453 49.3438 3.96484 49.6719C3.54297 50 2.99609 50.1875 2.32422 50.2344C1.98828 50.1797 1.67969 50.0078 1.39844 49.7188C1.11719 49.4297 0.894531 49.0586 0.730469 48.6055C0.566406 48.1523 0.484375 47.6602 0.484375 47.1289ZM14.6992 40.543C14.582 40.207 14.4883 39.8203 14.418 39.3828C14.3477 38.9453 14.3125 38.5195 14.3125 38.1055C14.5156 37.5273 14.8672 37.0469 15.3672 36.6641C15.875 36.2812 16.4961 36.0898 17.2305 36.0898C17.9336 36.0898 18.5 36.3125 18.9297 36.7578C19.3672 37.1953 19.7539 37.8828 20.0898 38.8203C20.4414 39.8047 20.7266 40.9688 20.9453 42.3125C21.1641 43.6562 21.3164 45.1055 21.4023 46.6602L21.7422 46.6719C22.0859 45.9844 22.3828 45.0039 22.6328 43.7305C22.8828 42.4492 23.0117 41.2344 23.0195 40.0859L21.5547 39.8281C21.4531 39.4453 21.3828 39.1094 21.3438 38.8203C21.3047 38.5234 21.2852 38.1992 21.2852 37.8477L21.2969 37.5195C21.4375 37.3164 21.6719 37.1055 22 36.8867C22.3281 36.668 22.7188 36.4844 23.1719 36.3359C23.6328 36.1875 24.1133 36.1133 24.6133 36.1133C26.6289 36.1133 27.6367 37.125 27.6367 39.1484C27.6367 40.3516 27.4219 41.6406 26.9922 43.0156C26.5625 44.3828 25.9414 45.6875 25.1289 46.9297C24.3242 48.1719 23.375 49.1953 22.2812 50C21.8984 50.1562 21.3789 50.2344 20.7227 50.2344C20.3711 50.2344 19.9766 50.1562 19.5391 50C19.1016 49.8516 18.7773 49.6953 18.5664 49.5312L18.3203 48.7109C17.7578 46.8047 17.25 45.1641 16.7969 43.7891C16.3438 42.4062 15.9297 41.3789 15.5547 40.707L14.6992 40.543ZM28.832 43.1914C28.832 41.8398 29.0586 40.6328 29.5117 39.5703C29.9648 38.5078 30.6641 37.668 31.6094 37.0508C32.5625 36.4258 33.75 36.1133 35.1719 36.1133C35.9141 36.1133 36.6562 36.2031 37.3984 36.3828C38.1406 36.5547 38.7695 36.8438 39.2852 37.25C39.7617 37.6328 40.1055 38.1406 40.3164 38.7734C40.5352 39.3984 40.6445 40.0938 40.6445 40.8594C40.6445 41.3672 40.6016 41.8867 40.5156 42.418C40.4219 42.5742 40.2383 42.7812 39.9648 43.0391C39.6914 43.2891 39.3711 43.5352 39.0039 43.7773C38.6367 44.0195 38.2812 44.207 37.9375 44.3398C37.6094 44.3633 37.2695 44.375 36.918 44.375C36.3008 44.375 35.6758 44.3477 35.043 44.293C34.4102 44.2383 33.8555 44.1758 33.3789 44.1055C33.4414 44.7695 33.6445 45.3477 33.9883 45.8398C34.332 46.332 34.8789 46.5781 35.6289 46.5781C35.6992 46.5781 35.8125 46.5703 35.9688 46.5547C36.4453 46.5078 37 46.3828 37.6328 46.1797C38.2734 45.9688 38.9102 45.7266 39.543 45.4531C39.8398 45.75 40.0586 46.0469 40.1992 46.3438C40.3398 46.6406 40.4375 47.0664 40.4922 47.6211C40.25 47.9023 39.8555 48.2461 39.3086 48.6523C38.7695 49.0586 38.1094 49.4258 37.3281 49.7539C36.5469 50.0742 35.7305 50.2344 34.8789 50.2344C33.5977 50.2344 32.5 49.9258 31.5859 49.3086C30.6797 48.6836 29.9922 47.8398 29.5234 46.7773C29.0625 45.707 28.832 44.5117 28.832 43.1914ZM36.3789 40.4961C36.2695 40.3789 36.0859 40.2891 35.8281 40.2266C35.5703 40.1562 35.3008 40.1211 35.0195 40.1211C34.793 40.1211 34.5625 40.1406 34.3281 40.1797C34.1016 40.2188 33.9648 40.2617 33.918 40.3086C33.6523 40.832 33.4844 41.4258 33.4141 42.0898L36.543 41.7852L36.3789 40.4961ZM43.3164 45.9219C43.3164 44.6484 43.332 43.6875 43.3633 43.0391C43.3945 42.3828 43.4766 41.4219 43.6094 40.1562L42.25 39.9805C42.0859 39.4727 41.9766 39.0195 41.9219 38.6211C41.875 38.2227 41.8516 37.707 41.8516 37.0742C41.9766 36.9648 42.1836 36.8359 42.4727 36.6875C42.7695 36.5312 43.1211 36.3984 43.5273 36.2891C43.9336 36.1719 44.3438 36.1133 44.7578 36.1133C45.7031 36.1133 46.3711 36.3164 46.7617 36.7227C47.1602 37.1289 47.3594 37.7383 47.3594 38.5508C47.3594 39.0039 47.293 39.6172 47.1602 40.3906C46.9414 41.6328 46.832 42.2852 46.832 42.3477C46.832 42.3867 46.8594 42.4258 46.9141 42.4648C46.9688 42.4961 47.0273 42.5117 47.0898 42.5117C47.1602 42.5117 47.207 42.4844 47.2305 42.4297C47.543 41.1875 47.8555 40.1484 48.168 39.3125C48.4805 38.4766 48.9531 37.7344 49.5859 37.0859C50.2188 36.4375 51.0391 36.1133 52.0469 36.1133C53.2969 36.1133 54.1953 36.4961 54.7422 37.2617C55.2891 38.0195 55.5625 38.9766 55.5625 40.1328C55.5625 41.1641 55.4414 42.1602 55.1992 43.1211C54.957 44.0742 54.6562 45.0703 54.2969 46.1094C54.3125 46.0703 54.2578 46.2227 54.1328 46.5664L54.1562 46.5898L55.8672 45.8867C56.4766 46.4102 56.832 47.1055 56.9336 47.9727C56.9336 48.0273 56.7578 48.25 56.4062 48.6406C56.0625 49.0312 55.6055 49.3945 55.0352 49.7305C54.4648 50.0664 53.8086 50.2344 53.0664 50.2344C52.3242 50.2344 51.7188 50.0352 51.25 49.6367C50.7812 49.2383 50.5469 48.5586 50.5469 47.5977C50.5469 46.832 50.5781 45.8086 50.6406 44.5273C50.7031 43.2461 50.7656 42.2148 50.8281 41.4336C50.625 41.2148 50.375 41.0977 50.0781 41.082C49.8047 41.4336 49.4023 42.1367 48.8711 43.1914C48.3398 44.2461 47.9648 45.0352 47.7461 45.5586C47.7305 45.668 47.7227 45.7734 47.7227 45.875C47.7227 46.2656 47.7812 46.793 47.8984 47.457C48.0156 48.1133 48.1602 48.7266 48.332 49.2969C48.1914 49.5625 47.9023 49.7852 47.4648 49.9648C47.0273 50.1445 46.4883 50.2344 45.8477 50.2344C45.2695 50.2344 44.8047 50.1875 44.4531 50.0938C44.1094 50 43.8672 49.9023 43.7266 49.8008C43.5859 49.6914 43.5156 49.625 43.5156 49.6016C43.5078 49.5312 43.4883 49.3477 43.457 49.0508C43.4258 48.7461 43.3945 48.3242 43.3633 47.7852C43.332 47.2383 43.3164 46.6172 43.3164 45.9219ZM58.7852 43.5312C58.7852 42.2578 58.8047 41.0977 58.8438 40.0508L57.5664 39.8281C57.4648 39.4375 57.3945 39.0938 57.3555 38.7969C57.3164 38.5 57.2969 38.1836 57.2969 37.8477L57.3203 37.6133C57.3438 37.5039 57.3555 37.4141 57.3555 37.3438L59.0547 36.9688C59.0938 36.4844 59.1836 35.9375 59.3242 35.3281C59.4648 34.7188 59.6133 34.2695 59.7695 33.9805C60.0195 33.793 60.3203 33.6523 60.6719 33.5586C61.0234 33.4648 61.4023 33.418 61.8086 33.418C62.1523 33.418 62.4844 33.4531 62.8047 33.5234C63.1328 33.5859 63.418 33.6719 63.6602 33.7812C63.6836 34.0469 63.6953 34.3516 63.6953 34.6953C63.6953 35.2578 63.668 35.8945 63.6133 36.6055L65.6758 36.2305C65.9648 36.7305 66.1094 37.2734 66.1094 37.8594C66.1094 38.2656 66.0586 38.6328 65.957 38.9609C65.8633 39.2891 65.7305 39.6602 65.5586 40.0742C65.043 40.1602 64.3359 40.2148 63.4375 40.2383C63.3281 41.5117 63.0859 43.3828 62.7109 45.8516L62.6523 46.25L62.6758 46.2734L65.4297 45.418C66 45.8945 66.3477 46.6289 66.4727 47.6211C66.4727 47.6758 66.2188 47.9336 65.7109 48.3945C65.2109 48.8477 64.582 49.2695 63.8242 49.6602C63.0664 50.043 62.2422 50.2344 61.3516 50.2344C59.7969 50.2344 58.9688 49.2852 58.8672 47.3867C58.8125 46.4258 58.7852 45.1406 58.7852 43.5312ZM72.0039 48.0195C72.0039 47.6602 72.0547 47.293 72.1562 46.918C72.2578 46.5352 72.3945 46.2188 72.5664 45.9688L73.6914 46.1797L74.957 35.2109L73.1523 34.9531C73.0039 34.5625 72.9297 34.1641 72.9297 33.7578C72.9297 33.3438 73.0117 32.9219 73.1758 32.4922C73.5898 32.2969 74.2969 32.1406 75.2969 32.0234C76.3047 31.8984 77.1992 31.8359 77.9805 31.8359C78.707 31.8359 79.6016 31.8516 80.6641 31.8828L81.0742 32.0703C81.2461 32.5547 81.4805 33.3867 81.7773 34.5664C82.082 35.7383 82.5977 37.8086 83.3242 40.7773C83.4414 41.2383 83.5703 41.7617 83.7109 42.3477C84.0859 40.9883 84.5469 39.0664 85.0938 36.582L85.3867 35.3047H85.4453L83.5 34.9766C83.3125 34.5391 83.2188 34.0703 83.2188 33.5703C83.2188 33.2422 83.2617 32.8867 83.3477 32.5039C84.1055 32.2617 84.8945 32.0898 85.7148 31.9883C86.543 31.8867 87.4453 31.8359 88.4219 31.8359H88.8086C89.2227 31.8359 89.8125 31.8516 90.5781 31.8828L90.9883 32.0703C91.4883 33.8828 91.9648 36.082 92.418 38.668C92.8789 41.2461 93.2266 43.6133 93.4609 45.7695L93.4961 46.0625C93.5039 46.1172 93.5234 46.3047 93.5547 46.625C93.5859 46.9375 93.6016 47.2383 93.6016 47.5273C93.6016 47.8789 93.5664 48.2266 93.4961 48.5703C93.3789 49.0859 93.168 49.5117 92.8633 49.8477C92.5586 49.9727 92.2383 50.0664 91.9023 50.1289C91.5742 50.1992 91.1914 50.2344 90.7539 50.2344C90.3242 50.2344 89.8945 50.1836 89.4648 50.082C89.043 49.9883 88.7617 49.8477 88.6211 49.6602L89.043 46.9766L88.3398 39.6055L88.3984 35.6797H88.0352L87.4609 39.6992C86.6953 42.5352 85.9961 44.7305 85.3633 46.2852C85.582 46.7148 85.7695 47.1914 85.9258 47.7148C86.0898 48.2383 86.1914 48.75 86.2305 49.25C85.9023 49.5625 85.4531 49.8047 84.8828 49.9766C84.3203 50.1484 83.7227 50.2344 83.0898 50.2344C82.4414 50.2344 81.8477 50.1445 81.3086 49.9648C80.7773 49.7852 80.3906 49.5352 80.1484 49.2148C80.1875 48.4258 80.3828 47.6641 80.7344 46.9297L78.6484 39.3945L77.7812 35.8438L77.3828 35.9023L77.957 39.875C77.9258 41.2578 77.875 42.6641 77.8047 44.0938C77.7344 45.5234 77.6562 46.6562 77.5703 47.4922H77.582C77.5195 47.9844 77.3516 48.4219 77.0781 48.8047C76.8125 49.1797 76.4727 49.4727 76.0586 49.6836C75.6523 49.8945 75.2109 50 74.7344 50C73.4844 50 72.582 49.4609 72.0273 48.3828C72.0117 48.2266 72.0039 48.1055 72.0039 48.0195ZM98.9102 42.2773C99.3711 42.2773 99.8789 42.3242 100.434 42.418C100.996 42.5117 101.512 42.625 101.98 42.7578V42.3945C101.98 42.1523 101.973 41.8828 101.957 41.5859C101.949 41.2891 101.934 41.0938 101.91 41C101.84 40.8672 101.637 40.7305 101.301 40.5898C100.973 40.4492 100.434 40.3789 99.6836 40.3789C99.2227 40.3789 98.7461 40.4375 98.2539 40.5547C97.7695 40.6641 97.2305 40.8125 96.6367 41C96.3164 40.4688 96.0586 39.9648 95.8633 39.4883C95.6758 39.0039 95.582 38.5195 95.582 38.0352C95.582 37.8867 95.5938 37.7383 95.6172 37.5898C96.8828 36.6055 98.5195 36.1133 100.527 36.1133C101.637 36.1133 102.621 36.2383 103.48 36.4883C104.34 36.7383 105.047 37.2227 105.602 37.9414C106.156 38.6602 106.434 39.6797 106.434 41C106.434 42.2891 106.281 43.5391 105.977 44.75C105.68 45.9531 105.527 46.5664 105.52 46.5898L107.219 45.8633C107.445 46.1055 107.645 46.4023 107.816 46.7539C107.996 47.0977 108.109 47.4961 108.156 47.9492C108.047 48.1836 107.809 48.4844 107.441 48.8516C107.074 49.2109 106.625 49.5312 106.094 49.8125C105.562 50.0938 105.008 50.2344 104.43 50.2344C103.781 50.2344 103.289 50.043 102.953 49.6602C102.625 49.2773 102.461 48.7812 102.461 48.1719C102.461 47.8281 102.512 47.4805 102.613 47.1289L102.262 47.0234C102.043 48.2578 101.578 49.1016 100.867 49.5547C100.156 50.0078 99.3711 50.2344 98.5117 50.2344C97.9492 50.2344 97.4062 50.0781 96.8828 49.7656C96.3594 49.4453 95.9336 48.9844 95.6055 48.3828C95.2773 47.7734 95.1133 47.0625 95.1133 46.25C95.1133 44.9531 95.4375 43.9688 96.0859 43.2969C96.7344 42.6172 97.6758 42.2773 98.9102 42.2773ZM100.246 46.7422C100.441 46.7031 100.672 46.5938 100.938 46.4141C101.211 46.2344 101.453 46.0195 101.664 45.7695C101.875 45.5195 102 45.2812 102.039 45.0547L101.969 44.7734C101.555 44.7188 101.113 44.6914 100.645 44.6914C100.246 44.6914 99.9727 44.7227 99.8242 44.7852C99.5742 45.0664 99.4492 45.3789 99.4492 45.7227C99.4492 45.9727 99.5117 46.1992 99.6367 46.4023C99.7695 46.6055 99.9727 46.7188 100.246 46.7422ZM109.855 45.9219C109.855 44.6484 109.871 43.6875 109.902 43.0391C109.934 42.3828 110.016 41.4219 110.148 40.1562L108.789 39.9805C108.625 39.4727 108.516 39.0195 108.461 38.6211C108.414 38.2227 108.391 37.707 108.391 37.0742C108.516 36.9648 108.723 36.8359 109.012 36.6875C109.309 36.5312 109.66 36.3984 110.066 36.2891C110.473 36.1719 110.883 36.1133 111.297 36.1133C112.242 36.1133 112.91 36.3164 113.301 36.7227C113.699 37.1289 113.898 37.7383 113.898 38.5508C113.898 39.0039 113.832 39.6172 113.699 40.3906C113.48 41.6328 113.371 42.2852 113.371 42.3477C113.371 42.3867 113.398 42.4258 113.453 42.4648C113.508 42.4961 113.566 42.5117 113.629 42.5117C113.699 42.5117 113.746 42.4844 113.77 42.4297C114.082 41.1875 114.395 40.1484 114.707 39.3125C115.02 38.4766 115.492 37.7344 116.125 37.0859C116.758 36.4375 117.578 36.1133 118.586 36.1133C119.836 36.1133 120.734 36.4961 121.281 37.2617C121.828 38.0195 122.102 38.9766 122.102 40.1328C122.102 41.1641 121.98 42.1602 121.738 43.1211C121.496 44.0742 121.195 45.0703 120.836 46.1094C120.852 46.0703 120.797 46.2227 120.672 46.5664L120.695 46.5898L122.406 45.8867C123.016 46.4102 123.371 47.1055 123.473 47.9727C123.473 48.0273 123.297 48.25 122.945 48.6406C122.602 49.0312 122.145 49.3945 121.574 49.7305C121.004 50.0664 120.348 50.2344 119.605 50.2344C118.863 50.2344 118.258 50.0352 117.789 49.6367C117.32 49.2383 117.086 48.5586 117.086 47.5977C117.086 46.832 117.117 45.8086 117.18 44.5273C117.242 43.2461 117.305 42.2148 117.367 41.4336C117.164 41.2148 116.914 41.0977 116.617 41.082C116.344 41.4336 115.941 42.1367 115.41 43.1914C114.879 44.2461 114.504 45.0352 114.285 45.5586C114.27 45.668 114.262 45.7734 114.262 45.875C114.262 46.2656 114.32 46.793 114.438 47.457C114.555 48.1133 114.699 48.7266 114.871 49.2969C114.73 49.5625 114.441 49.7852 114.004 49.9648C113.566 50.1445 113.027 50.2344 112.387 50.2344C111.809 50.2344 111.344 50.1875 110.992 50.0938C110.648 50 110.406 49.9023 110.266 49.8008C110.125 49.6914 110.055 49.625 110.055 49.6016C110.047 49.5312 110.027 49.3477 109.996 49.0508C109.965 48.7461 109.934 48.3242 109.902 47.7852C109.871 47.2383 109.855 46.6172 109.855 45.9219ZM128.137 42.2773C128.598 42.2773 129.105 42.3242 129.66 42.418C130.223 42.5117 130.738 42.625 131.207 42.7578V42.3945C131.207 42.1523 131.199 41.8828 131.184 41.5859C131.176 41.2891 131.16 41.0938 131.137 41C131.066 40.8672 130.863 40.7305 130.527 40.5898C130.199 40.4492 129.66 40.3789 128.91 40.3789C128.449 40.3789 127.973 40.4375 127.48 40.5547C126.996 40.6641 126.457 40.8125 125.863 41C125.543 40.4688 125.285 39.9648 125.09 39.4883C124.902 39.0039 124.809 38.5195 124.809 38.0352C124.809 37.8867 124.82 37.7383 124.844 37.5898C126.109 36.6055 127.746 36.1133 129.754 36.1133C130.863 36.1133 131.848 36.2383 132.707 36.4883C133.566 36.7383 134.273 37.2227 134.828 37.9414C135.383 38.6602 135.66 39.6797 135.66 41C135.66 42.2891 135.508 43.5391 135.203 44.75C134.906 45.9531 134.754 46.5664 134.746 46.5898L136.445 45.8633C136.672 46.1055 136.871 46.4023 137.043 46.7539C137.223 47.0977 137.336 47.4961 137.383 47.9492C137.273 48.1836 137.035 48.4844 136.668 48.8516C136.301 49.2109 135.852 49.5312 135.32 49.8125C134.789 50.0938 134.234 50.2344 133.656 50.2344C133.008 50.2344 132.516 50.043 132.18 49.6602C131.852 49.2773 131.688 48.7812 131.688 48.1719C131.688 47.8281 131.738 47.4805 131.84 47.1289L131.488 47.0234C131.27 48.2578 130.805 49.1016 130.094 49.5547C129.383 50.0078 128.598 50.2344 127.738 50.2344C127.176 50.2344 126.633 50.0781 126.109 49.7656C125.586 49.4453 125.16 48.9844 124.832 48.3828C124.504 47.7734 124.34 47.0625 124.34 46.25C124.34 44.9531 124.664 43.9688 125.312 43.2969C125.961 42.6172 126.902 42.2773 128.137 42.2773ZM129.473 46.7422C129.668 46.7031 129.898 46.5938 130.164 46.4141C130.438 46.2344 130.68 46.0195 130.891 45.7695C131.102 45.5195 131.227 45.2812 131.266 45.0547L131.195 44.7734C130.781 44.7188 130.34 44.6914 129.871 44.6914C129.473 44.6914 129.199 44.7227 129.051 44.7852C128.801 45.0664 128.676 45.3789 128.676 45.7227C128.676 45.9727 128.738 46.1992 128.863 46.4023C128.996 46.6055 129.199 46.7188 129.473 46.7422ZM144.824 51.8633C145.348 51.8633 145.801 51.8047 146.184 51.6875C146.301 51.5703 146.383 51.4336 146.43 51.2773C146.477 51.1289 146.5 50.9883 146.5 50.8555C146.5 50.7148 146.488 50.6094 146.465 50.5391C146.441 50.4766 146.402 50.418 146.348 50.3633C146.02 50.3086 145.633 50.2695 145.188 50.2461C144.75 50.2305 144.488 50.2188 144.402 50.2109C143.316 50.1641 142.434 50.0859 141.754 49.9766C141.074 49.8594 140.492 49.6094 140.008 49.2266C139.523 48.8359 139.281 48.25 139.281 47.4688C139.281 47.0469 139.418 46.6523 139.691 46.2852C139.965 45.9102 140.32 45.582 140.758 45.3008C139.867 44.9336 139.152 44.3828 138.613 43.6484C138.082 42.9062 137.816 41.9492 137.816 40.7773C137.816 39.6133 138.113 38.6797 138.707 37.9766C139.309 37.2656 140.047 36.7656 140.922 36.4766C141.797 36.1875 142.688 36.043 143.594 36.043C144.164 36.043 144.723 36.0977 145.27 36.207C145.816 36.3164 146.324 36.4727 146.793 36.6758L146.289 33.6992C146.766 33.4102 147.359 33.2656 148.07 33.2656C148.586 33.2656 149.066 33.3516 149.512 33.5234C149.957 33.6953 150.297 33.9414 150.531 34.2617C150.547 34.3398 150.555 34.4648 150.555 34.6367C150.555 35.2773 150.438 35.9922 150.203 36.7812C149.977 37.5625 149.582 38.1914 149.02 38.668C149.301 39.2305 149.441 39.8359 149.441 40.4844C149.441 41.4375 149.258 42.3164 148.891 43.1211C148.531 43.9258 147.93 44.582 147.086 45.0898C146.242 45.5898 145.145 45.8398 143.793 45.8398C143.402 45.8398 142.996 45.8164 142.574 45.7695C142.551 46.1602 142.645 46.5508 142.855 46.9414C143.91 46.7383 144.762 46.6328 145.41 46.625L146.207 46.6133C147.285 46.6133 148.102 46.6797 148.656 46.8125C149.266 46.9609 149.719 47.2969 150.016 47.8203C150.32 48.3438 150.473 48.9805 150.473 49.7305C150.473 50.9023 150.113 51.8867 149.395 52.6836C148.684 53.4883 147.758 54.0859 146.617 54.4766C145.484 54.8672 144.281 55.0625 143.008 55.0625C141.828 55.0625 140.777 54.8633 139.855 54.4648C138.934 54.0664 138.352 53.3359 138.109 52.2734C138.367 51.375 138.859 50.6953 139.586 50.2344C140.562 50.8203 141.496 51.2383 142.387 51.4883C143.285 51.7383 144.098 51.8633 144.824 51.8633ZM144.109 42.9453C144.672 42.9453 145 42.9102 145.094 42.8398C145.305 42.418 145.41 41.9844 145.41 41.5391C145.41 41.0781 145.305 40.6445 145.094 40.2383C144.992 40.1523 144.766 40.0859 144.414 40.0391C144.07 39.9922 143.695 39.9688 143.289 39.9688C142.781 39.9688 142.441 40 142.27 40.0625C142.027 40.4922 141.906 40.9258 141.906 41.3633C141.906 41.8086 142.02 42.2305 142.246 42.6289C142.418 42.7383 142.676 42.8203 143.02 42.875C143.371 42.9219 143.734 42.9453 144.109 42.9453ZM151.551 43.1914C151.551 41.8398 151.777 40.6328 152.23 39.5703C152.684 38.5078 153.383 37.668 154.328 37.0508C155.281 36.4258 156.469 36.1133 157.891 36.1133C158.633 36.1133 159.375 36.2031 160.117 36.3828C160.859 36.5547 161.488 36.8438 162.004 37.25C162.48 37.6328 162.824 38.1406 163.035 38.7734C163.254 39.3984 163.363 40.0938 163.363 40.8594C163.363 41.3672 163.32 41.8867 163.234 42.418C163.141 42.5742 162.957 42.7812 162.684 43.0391C162.41 43.2891 162.09 43.5352 161.723 43.7773C161.355 44.0195 161 44.207 160.656 44.3398C160.328 44.3633 159.988 44.375 159.637 44.375C159.02 44.375 158.395 44.3477 157.762 44.293C157.129 44.2383 156.574 44.1758 156.098 44.1055C156.16 44.7695 156.363 45.3477 156.707 45.8398C157.051 46.332 157.598 46.5781 158.348 46.5781C158.418 46.5781 158.531 46.5703 158.688 46.5547C159.164 46.5078 159.719 46.3828 160.352 46.1797C160.992 45.9688 161.629 45.7266 162.262 45.4531C162.559 45.75 162.777 46.0469 162.918 46.3438C163.059 46.6406 163.156 47.0664 163.211 47.6211C162.969 47.9023 162.574 48.2461 162.027 48.6523C161.488 49.0586 160.828 49.4258 160.047 49.7539C159.266 50.0742 158.449 50.2344 157.598 50.2344C156.316 50.2344 155.219 49.9258 154.305 49.3086C153.398 48.6836 152.711 47.8398 152.242 46.7773C151.781 45.707 151.551 44.5117 151.551 43.1914ZM159.098 40.4961C158.988 40.3789 158.805 40.2891 158.547 40.2266C158.289 40.1562 158.02 40.1211 157.738 40.1211C157.512 40.1211 157.281 40.1406 157.047 40.1797C156.82 40.2188 156.684 40.2617 156.637 40.3086C156.371 40.832 156.203 41.4258 156.133 42.0898L159.262 41.7852L159.098 40.4961ZM166.105 46.8594C166.105 46.5234 166.113 45.6992 166.129 44.3867C166.152 41.8086 166.164 40.3984 166.164 40.1562L165.086 39.9805C164.938 39.5352 164.832 39.1172 164.77 38.7266C164.707 38.3359 164.676 37.9414 164.676 37.543C164.676 37.3789 164.68 37.2539 164.688 37.168C164.82 37.0508 165.027 36.9102 165.309 36.7461C165.59 36.582 165.922 36.4375 166.305 36.3125C166.688 36.1797 167.078 36.1133 167.477 36.1133C168.406 36.1133 169.078 36.3203 169.492 36.7344C169.914 37.1484 170.125 37.7539 170.125 38.5508C170.125 39.0352 170.062 39.6562 169.938 40.4141C169.82 41.1641 169.699 41.6992 169.574 42.0195L169.996 42.0898L170.699 39.4414C171.012 38.2461 171.402 37.3945 171.871 36.8867C172.34 36.3711 172.867 36.1133 173.453 36.1133C173.836 36.1133 174.215 36.1719 174.59 36.2891C174.973 36.4062 175.266 36.5508 175.469 36.7227C175.688 37.207 175.797 37.8516 175.797 38.6562C175.797 39.2188 175.742 39.7773 175.633 40.332C175.523 40.8789 175.383 41.3203 175.211 41.6562L172.75 41.3281C172.25 41.8594 171.719 42.5977 171.156 43.543C170.594 44.4805 170.145 45.3438 169.809 46.1328L169.797 46.7422L172.07 46.2031C172.453 46.7891 172.676 47.4844 172.738 48.2891C172.738 48.3359 172.562 48.5273 172.211 48.8633C171.859 49.1992 171.395 49.5117 170.816 49.8008C170.246 50.082 169.59 50.2227 168.848 50.2227C168.082 50.2227 167.441 50.0195 166.926 49.6133C166.418 49.1992 166.148 48.5039 166.117 47.5273C166.109 47.4102 166.105 47.1875 166.105 46.8594Z" fill="#ED1C24"/>
</svg>
