<svg width="24" height="24" viewBox="0 0 24 24" fill="none" xmlns="http://www.w3.org/2000/svg">
<circle cx="12" cy="12" r="12" fill="#713946"/>
<circle cx="20.5" cy="3.5" r="2.5" fill="#27C955"/>
<path fill-rule="evenodd" clip-rule="evenodd" d="M12 6.47368C10.6469 6.47368 9.55 7.62832 9.55 9.05263C9.55 10.4769 10.6469 11.6316 12 11.6316C13.3531 11.6316 14.45 10.4769 14.45 9.05263C14.45 7.62832 13.3531 6.47368 12 6.47368ZM8.15 9.05263C8.15 6.81442 9.8737 5 12 5C14.1263 5 15.85 6.81442 15.85 9.05263C15.85 11.2908 14.1263 13.1053 12 13.1053C9.8737 13.1053 8.15 11.2908 8.15 9.05263ZM12 16.0526C9.76616 16.0526 7.72533 17.0761 6.20932 18.7686C5.94411 19.0647 5.50109 19.0784 5.2198 18.7993C4.93851 18.5201 4.92547 18.0538 5.19068 17.7577C6.94478 15.7993 9.34366 14.5789 12 14.5789C14.6563 14.5789 17.0552 15.7993 18.8093 17.7577C19.0745 18.0538 19.0615 18.5201 18.7802 18.7993C18.4989 19.0784 18.0559 19.0647 17.7907 18.7686C16.2747 17.0761 14.2338 16.0526 12 16.0526Z" fill="#EDEDED"/>
</svg>
